<svg xmlns="http://www.w3.org/2000/svg" viewBox="0 0 560 130" role="img" aria-label="Michigan Shippers Supply">
  <defs><clipPath id="topH"><polygon points="60,18 102,42 60,66 18,42"/></clipPath></defs>
  <g transform="translate(8,10) scale(0.92)">
    <polygon points="18,42 60,66 60,108 18,84" fill="#c3c8cc"/>
    <polygon points="60,66 102,42 102,84 60,108" fill="#2f7dc1"/>
    <polygon points="60,18 102,42 60,66 18,42" fill="#eef0f2"/>
    <g clip-path="url(#topH)" stroke="#6f767c" stroke-width="3.2">
      <line x1="6" y1="40" x2="78" y2="-1"/><line x1="14" y1="48" x2="86" y2="7"/>
      <line x1="22" y1="56" x2="94" y2="15"/><line x1="30" y1="64" x2="102" y2="23"/>
      <line x1="38" y1="72" x2="110" y2="31"/>
    </g>
    <polygon points="60,18 102,42 102,84 60,108 18,84 18,42" fill="none" stroke="#5d666d" stroke-width="1.4" stroke-linejoin="round"/>
    <line x1="60" y1="66" x2="60" y2="108" stroke="#5d666d" stroke-width="1.2"/>
    <polygon points="60,18 102,42 60,66 18,42" fill="none" stroke="#5d666d" stroke-width="1.4" stroke-linejoin="round"/>
  </g>
  <text x="150" y="62" font-family="Georgia, 'Times New Roman', serif" font-size="33" font-weight="700" fill="#1c2c3e" letter-spacing="1.5">MICHIGAN SHIPPERS</text>
  <text x="152" y="92" font-family="Arial, Helvetica, sans-serif" font-size="14.5" font-weight="700" fill="#215e93" letter-spacing="6">SUPPLY &#183; EST. 1959</text>
</svg>
